<mxfile host="app.diagrams.net" agent="Mozilla/5.0 (Macintosh; Intel Mac OS X 10_15_7) AppleWebKit/537.36 (KHTML, like Gecko) Chrome/138.0.0.0 Safari/537.36" version="28.0.6">
  <diagram id="t3ZfkelsdCKtqb3b9uK7" name="インフラ構成図">
    <mxGraphModel grid="0" page="0" gridSize="10" guides="1" tooltips="1" connect="1" arrows="1" fold="1" pageScale="1" pageWidth="827" pageHeight="1169" background="none" math="0" shadow="0">
      <root>
        <mxCell id="0" />
        <mxCell id="1" parent="0" />
        <mxCell id="kA7K5sc3ySlYg232Aals-64" value="AWS Cloud" style="sketch=0;outlineConnect=0;gradientColor=none;html=1;whiteSpace=wrap;fontSize=12;fontStyle=0;shape=mxgraph.aws4.group;grIcon=mxgraph.aws4.group_aws_cloud;strokeColor=default;fillColor=none;verticalAlign=top;align=left;spacingLeft=30;fontColor=#AAB7B8;dashed=0;direction=east;movable=1;resizable=1;rotatable=1;deletable=1;editable=1;locked=0;connectable=1;" vertex="1" parent="1">
          <mxGeometry x="-686" y="378" width="834" height="549" as="geometry" />
        </mxCell>
        <mxCell id="kA7K5sc3ySlYg232Aals-66" value="VPC" style="points=[[0,0],[0.25,0],[0.5,0],[0.75,0],[1,0],[1,0.25],[1,0.5],[1,0.75],[1,1],[0.75,1],[0.5,1],[0.25,1],[0,1],[0,0.75],[0,0.5],[0,0.25]];outlineConnect=0;gradientColor=none;html=1;whiteSpace=wrap;fontSize=12;fontStyle=0;container=1;pointerEvents=0;collapsible=0;recursiveResize=0;shape=mxgraph.aws4.group;grIcon=mxgraph.aws4.group_vpc2;strokeColor=default;fillColor=none;verticalAlign=top;align=left;spacingLeft=30;fontColor=#AAB7B8;dashed=0;" vertex="1" parent="1">
          <mxGeometry x="-633" y="539" width="589" height="367" as="geometry" />
        </mxCell>
        <mxCell id="kA7K5sc3ySlYg232Aals-69" value="" style="sketch=0;outlineConnect=0;fontColor=#232F3E;gradientColor=none;fillColor=#8C4FFF;strokeColor=none;dashed=0;verticalLabelPosition=bottom;verticalAlign=top;align=center;html=1;fontSize=12;fontStyle=0;aspect=fixed;pointerEvents=1;shape=mxgraph.aws4.endpoints;" vertex="1" parent="kA7K5sc3ySlYg232Aals-66">
          <mxGeometry x="85" y="-26" width="45" height="45" as="geometry" />
        </mxCell>
        <mxCell id="kA7K5sc3ySlYg232Aals-68" value="" style="sketch=0;outlineConnect=0;fontColor=#232F3E;gradientColor=none;fillColor=#8C4FFF;strokeColor=none;dashed=0;verticalLabelPosition=bottom;verticalAlign=top;align=center;html=1;fontSize=12;fontStyle=0;aspect=fixed;pointerEvents=1;shape=mxgraph.aws4.internet_gateway;" vertex="1" parent="kA7K5sc3ySlYg232Aals-66">
          <mxGeometry x="266" y="-17" width="45" height="45" as="geometry" />
        </mxCell>
        <mxCell id="kA7K5sc3ySlYg232Aals-67" value="&lt;font style=&quot;font-size: 10px;&quot;&gt;Internet G&lt;span style=&quot;background-color: initial;&quot;&gt;ateway&lt;/span&gt;&lt;/font&gt;" style="text;html=1;align=center;verticalAlign=middle;resizable=0;points=[];autosize=1;strokeColor=none;fillColor=none;" vertex="1" parent="kA7K5sc3ySlYg232Aals-66">
          <mxGeometry x="247" y="28" width="94" height="26" as="geometry" />
        </mxCell>
        <mxCell id="kA7K5sc3ySlYg232Aals-72" value="Private subnet" style="points=[[0,0],[0.25,0],[0.5,0],[0.75,0],[1,0],[1,0.25],[1,0.5],[1,0.75],[1,1],[0.75,1],[0.5,1],[0.25,1],[0,1],[0,0.75],[0,0.5],[0,0.25]];outlineConnect=0;gradientColor=none;html=1;whiteSpace=wrap;fontSize=12;fontStyle=0;container=1;pointerEvents=0;collapsible=0;recursiveResize=0;shape=mxgraph.aws4.group;grIcon=mxgraph.aws4.group_security_group;grStroke=0;strokeColor=#00A4A6;fillColor=#E6F6F7;verticalAlign=top;align=left;spacingLeft=30;fontColor=#147EBA;dashed=0;" vertex="1" parent="1">
          <mxGeometry x="-467" y="722" width="334" height="160" as="geometry" />
        </mxCell>
        <mxCell id="kA7K5sc3ySlYg232Aals-74" value="" style="sketch=0;points=[[0,0,0],[0.25,0,0],[0.5,0,0],[0.75,0,0],[1,0,0],[0,1,0],[0.25,1,0],[0.5,1,0],[0.75,1,0],[1,1,0],[0,0.25,0],[0,0.5,0],[0,0.75,0],[1,0.25,0],[1,0.5,0],[1,0.75,0]];outlineConnect=0;fontColor=#232F3E;fillColor=#C925D1;strokeColor=#ffffff;dashed=0;verticalLabelPosition=bottom;verticalAlign=top;align=center;html=1;fontSize=12;fontStyle=0;aspect=fixed;shape=mxgraph.aws4.resourceIcon;resIcon=mxgraph.aws4.database;" vertex="1" parent="kA7K5sc3ySlYg232Aals-72">
          <mxGeometry x="28" y="39" width="45" height="45" as="geometry" />
        </mxCell>
        <mxCell id="SYO9HQyrmS-Qv4K9v25R-28" value="&lt;font style=&quot;font-size: 10px;&quot;&gt;rds&lt;/font&gt;" style="text;html=1;align=center;verticalAlign=middle;resizable=0;points=[];autosize=1;strokeColor=none;fillColor=none;" vertex="1" parent="kA7K5sc3ySlYg232Aals-72">
          <mxGeometry x="34.5" y="84" width="32" height="26" as="geometry" />
        </mxCell>
        <mxCell id="eGU3llpm9WrEKqX8-Z8R-14" value="&lt;font style=&quot;font-size: 10px;&quot;&gt;VPC Connector&lt;/font&gt;" style="text;html=1;align=center;verticalAlign=middle;resizable=0;points=[];autosize=1;strokeColor=none;fillColor=none;" vertex="1" parent="kA7K5sc3ySlYg232Aals-72">
          <mxGeometry x="287" y="84" width="87" height="26" as="geometry" />
        </mxCell>
        <mxCell id="QzXGxKZulGZRJOYpf9lf-2" value="" style="sketch=0;points=[[0,0,0],[0.25,0,0],[0.5,0,0],[0.75,0,0],[1,0,0],[0,1,0],[0.25,1,0],[0.5,1,0],[0.75,1,0],[1,1,0],[0,0.25,0],[0,0.5,0],[0,0.75,0],[1,0.25,0],[1,0.5,0],[1,0.75,0]];outlineConnect=0;fontColor=#232F3E;fillColor=#ED7100;strokeColor=#ffffff;dashed=0;verticalLabelPosition=bottom;verticalAlign=top;align=center;html=1;fontSize=12;fontStyle=0;aspect=fixed;shape=mxgraph.aws4.resourceIcon;resIcon=mxgraph.aws4.batch;" vertex="1" parent="kA7K5sc3ySlYg232Aals-72">
          <mxGeometry x="151" y="91.5" width="45" height="45" as="geometry" />
        </mxCell>
        <mxCell id="QzXGxKZulGZRJOYpf9lf-4" style="edgeStyle=orthogonalEdgeStyle;rounded=0;orthogonalLoop=1;jettySize=auto;html=1;" edge="1" parent="kA7K5sc3ySlYg232Aals-72" source="QzXGxKZulGZRJOYpf9lf-2" target="kA7K5sc3ySlYg232Aals-74">
          <mxGeometry relative="1" as="geometry">
            <Array as="points">
              <mxPoint x="51" y="112" />
            </Array>
          </mxGeometry>
        </mxCell>
        <mxCell id="kA7K5sc3ySlYg232Aals-92" value="Public subnet" style="points=[[0,0],[0.25,0],[0.5,0],[0.75,0],[1,0],[1,0.25],[1,0.5],[1,0.75],[1,1],[0.75,1],[0.5,1],[0.25,1],[0,1],[0,0.75],[0,0.5],[0,0.25]];outlineConnect=0;gradientColor=none;html=1;whiteSpace=wrap;fontSize=12;fontStyle=0;container=1;pointerEvents=0;collapsible=0;recursiveResize=0;shape=mxgraph.aws4.group;grIcon=mxgraph.aws4.group_security_group;grStroke=0;strokeColor=#7AA116;fillColor=#F2F6E8;verticalAlign=top;align=left;spacingLeft=30;fontColor=#248814;dashed=0;" vertex="1" parent="1">
          <mxGeometry x="-468" y="620" width="337" height="87" as="geometry" />
        </mxCell>
        <mxCell id="kA7K5sc3ySlYg232Aals-93" value="&lt;span style=&quot;font-size: 10px;&quot;&gt;Nat Gateway&lt;/span&gt;" style="text;html=1;align=center;verticalAlign=middle;resizable=0;points=[];autosize=1;strokeColor=none;fillColor=none;" vertex="1" parent="kA7K5sc3ySlYg232Aals-92">
          <mxGeometry x="94" y="19" width="76" height="26" as="geometry" />
        </mxCell>
        <mxCell id="kA7K5sc3ySlYg232Aals-121" value="" style="outlineConnect=0;dashed=0;verticalLabelPosition=bottom;verticalAlign=top;align=center;html=1;shape=mxgraph.aws3.vpc_nat_gateway;fillColor=#F58534;gradientColor=none;" vertex="1" parent="kA7K5sc3ySlYg232Aals-92">
          <mxGeometry x="105" y="-26" width="45" height="45" as="geometry" />
        </mxCell>
        <mxCell id="kA7K5sc3ySlYg232Aals-103" value="" style="sketch=0;outlineConnect=0;fontColor=#232F3E;gradientColor=none;fillColor=#232F3D;strokeColor=none;dashed=0;verticalLabelPosition=bottom;verticalAlign=top;align=center;html=1;fontSize=12;fontStyle=0;aspect=fixed;pointerEvents=1;shape=mxgraph.aws4.users;" vertex="1" parent="1">
          <mxGeometry x="31.5" y="239" width="60" height="60" as="geometry" />
        </mxCell>
        <mxCell id="kA7K5sc3ySlYg232Aals-105" value="users" style="text;html=1;align=center;verticalAlign=middle;resizable=0;points=[];autosize=1;strokeColor=none;fillColor=none;" vertex="1" parent="1">
          <mxGeometry x="63" y="302" width="47" height="26" as="geometry" />
        </mxCell>
        <mxCell id="kA7K5sc3ySlYg232Aals-109" style="edgeStyle=orthogonalEdgeStyle;rounded=0;orthogonalLoop=1;jettySize=auto;html=1;endArrow=none;endFill=0;startArrow=classic;startFill=1;" edge="1" parent="1" source="kA7K5sc3ySlYg232Aals-110" target="kA7K5sc3ySlYg232Aals-69">
          <mxGeometry relative="1" as="geometry">
            <Array as="points">
              <mxPoint x="-525" y="478" />
            </Array>
          </mxGeometry>
        </mxCell>
        <mxCell id="kA7K5sc3ySlYg232Aals-110" value="" style="outlineConnect=0;dashed=0;verticalLabelPosition=bottom;verticalAlign=top;align=center;html=1;shape=mxgraph.aws3.ecr;fillColor=#F58534;gradientColor=none;" vertex="1" parent="1">
          <mxGeometry x="-105" y="451" width="45" height="45" as="geometry" />
        </mxCell>
        <mxCell id="kA7K5sc3ySlYg232Aals-115" value="" style="sketch=0;outlineConnect=0;fontColor=#232F3E;gradientColor=none;fillColor=#E7157B;strokeColor=none;dashed=0;verticalLabelPosition=bottom;verticalAlign=top;align=center;html=1;fontSize=12;fontStyle=0;aspect=fixed;pointerEvents=1;shape=mxgraph.aws4.parameter_store;" vertex="1" parent="1">
          <mxGeometry x="-650" y="411" width="43.27" height="45" as="geometry" />
        </mxCell>
        <mxCell id="kA7K5sc3ySlYg232Aals-116" value="&lt;span style=&quot;font-size: 10px;&quot;&gt;SSM&lt;/span&gt;" style="text;html=1;align=center;verticalAlign=middle;resizable=0;points=[];autosize=1;strokeColor=none;fillColor=none;" vertex="1" parent="1">
          <mxGeometry x="-644" y="458" width="40" height="26" as="geometry" />
        </mxCell>
        <mxCell id="eGU3llpm9WrEKqX8-Z8R-2" value="&lt;span style=&quot;font-size: 10px;&quot;&gt;App Runner&lt;/span&gt;" style="text;html=1;align=center;verticalAlign=middle;resizable=0;points=[];autosize=1;strokeColor=none;fillColor=none;" vertex="1" parent="1">
          <mxGeometry x="35.5" y="821" width="71" height="26" as="geometry" />
        </mxCell>
        <mxCell id="kA7K5sc3ySlYg232Aals-112" value="&lt;span style=&quot;font-size: 10px;&quot;&gt;ECR&lt;/span&gt;" style="text;html=1;align=center;verticalAlign=middle;resizable=0;points=[];autosize=1;strokeColor=none;fillColor=none;" vertex="1" parent="1">
          <mxGeometry x="-102" y="496" width="39" height="26" as="geometry" />
        </mxCell>
        <mxCell id="eGU3llpm9WrEKqX8-Z8R-12" style="edgeStyle=orthogonalEdgeStyle;rounded=0;orthogonalLoop=1;jettySize=auto;html=1;" edge="1" parent="1" source="eGU3llpm9WrEKqX8-Z8R-1" target="eGU3llpm9WrEKqX8-Z8R-11">
          <mxGeometry relative="1" as="geometry" />
        </mxCell>
        <mxCell id="eGU3llpm9WrEKqX8-Z8R-1" value="" style="sketch=0;points=[[0,0,0],[0.25,0,0],[0.5,0,0],[0.75,0,0],[1,0,0],[0,1,0],[0.25,1,0],[0.5,1,0],[0.75,1,0],[1,1,0],[0,0.25,0],[0,0.5,0],[0,0.75,0],[1,0.25,0],[1,0.5,0],[1,0.75,0]];outlineConnect=0;fontColor=#232F3E;fillColor=#ED7100;strokeColor=#ffffff;dashed=0;verticalLabelPosition=bottom;verticalAlign=top;align=center;html=1;fontSize=12;fontStyle=0;aspect=fixed;shape=mxgraph.aws4.resourceIcon;resIcon=mxgraph.aws4.app_runner;" vertex="1" parent="1">
          <mxGeometry x="39" y="761" width="45" height="45" as="geometry" />
        </mxCell>
        <mxCell id="kA7K5sc3ySlYg232Aals-70" value="&lt;font style=&quot;font-size: 10px;&quot;&gt;Vpc Endpoint&lt;/font&gt;" style="text;html=1;align=center;verticalAlign=middle;resizable=0;points=[];autosize=1;strokeColor=none;fillColor=none;" vertex="1" parent="1">
          <mxGeometry x="-560" y="558" width="77" height="26" as="geometry" />
        </mxCell>
        <mxCell id="eGU3llpm9WrEKqX8-Z8R-8" style="edgeStyle=orthogonalEdgeStyle;rounded=0;orthogonalLoop=1;jettySize=auto;html=1;" edge="1" parent="1" source="kA7K5sc3ySlYg232Aals-121" target="kA7K5sc3ySlYg232Aals-68">
          <mxGeometry relative="1" as="geometry">
            <Array as="points">
              <mxPoint x="-331" y="552" />
            </Array>
          </mxGeometry>
        </mxCell>
        <mxCell id="eGU3llpm9WrEKqX8-Z8R-9" style="edgeStyle=orthogonalEdgeStyle;rounded=0;orthogonalLoop=1;jettySize=auto;html=1;entryX=0.5;entryY=0;entryDx=0;entryDy=0;entryPerimeter=0;" edge="1" parent="1" source="kA7K5sc3ySlYg232Aals-103" target="eGU3llpm9WrEKqX8-Z8R-1">
          <mxGeometry relative="1" as="geometry" />
        </mxCell>
        <mxCell id="eGU3llpm9WrEKqX8-Z8R-11" value="" style="sketch=0;outlineConnect=0;fontColor=#232F3E;gradientColor=none;fillColor=#8C4FFF;strokeColor=none;dashed=0;verticalLabelPosition=bottom;verticalAlign=top;align=center;html=1;fontSize=12;fontStyle=0;aspect=fixed;pointerEvents=1;shape=mxgraph.aws4.customer_gateway;" vertex="1" parent="1">
          <mxGeometry x="-160" y="761" width="45" height="45" as="geometry" />
        </mxCell>
        <mxCell id="eGU3llpm9WrEKqX8-Z8R-13" style="edgeStyle=orthogonalEdgeStyle;rounded=0;orthogonalLoop=1;jettySize=auto;html=1;entryX=1;entryY=0.5;entryDx=0;entryDy=0;entryPerimeter=0;" edge="1" parent="1" source="eGU3llpm9WrEKqX8-Z8R-11" target="kA7K5sc3ySlYg232Aals-74">
          <mxGeometry relative="1" as="geometry" />
        </mxCell>
        <mxCell id="QzXGxKZulGZRJOYpf9lf-1" value="" style="sketch=0;points=[[0,0,0],[0.25,0,0],[0.5,0,0],[0.75,0,0],[1,0,0],[0,1,0],[0.25,1,0],[0.5,1,0],[0.75,1,0],[1,1,0],[0,0.25,0],[0,0.5,0],[0,0.75,0],[1,0.25,0],[1,0.5,0],[1,0.75,0]];outlineConnect=0;fontColor=#232F3E;fillColor=#ED7100;strokeColor=#ffffff;dashed=0;verticalLabelPosition=bottom;verticalAlign=top;align=center;html=1;fontSize=12;fontStyle=0;aspect=fixed;shape=mxgraph.aws4.resourceIcon;resIcon=mxgraph.aws4.batch;" vertex="1" parent="1">
          <mxGeometry x="-1465" y="499.1" width="45" height="45" as="geometry" />
        </mxCell>
        <mxCell id="QzXGxKZulGZRJOYpf9lf-5" value="&lt;font style=&quot;font-size: 10px;&quot;&gt;AWS Batch&lt;/font&gt;&lt;div&gt;&lt;font style=&quot;font-size: 10px;&quot;&gt;マイグレーション用&lt;/font&gt;&lt;/div&gt;" style="text;html=1;align=center;verticalAlign=middle;resizable=0;points=[];autosize=1;strokeColor=none;fillColor=none;" vertex="1" parent="1">
          <mxGeometry x="-344" y="851" width="106" height="41" as="geometry" />
        </mxCell>
      </root>
    </mxGraphModel>
  </diagram>
</mxfile>
